<svg viewBox="0 0 340 118" fill="none" xmlns="http://www.w3.org/2000/svg" role="img" aria-label="Spinout">
  <title>Spinout</title>
  <defs>
    <style>
      @import url('https://fonts.googleapis.com/css2?family=Baloo+2:wght@800&amp;display=swap');
      .word { font-family: 'Baloo 2', system-ui, sans-serif; font-weight: 800; fill: #3A2A24; }
      .tagline { font-family: 'Nunito', system-ui, sans-serif; font-weight: 800; fill: #C18A52; letter-spacing: 0.22em; text-transform: uppercase; font-size: 12px; }
    </style>
  </defs>
  <g transform="translate(52 64)">
    <g transform="translate(4 4)"><circle r="52" fill="#3A2A24"/></g>
    <polygon points="0,-16 -11,2 11,2" fill="#3A2A24" transform="translate(0 -48)"/>
    <g transform="scale(0.26)" stroke="#3A2A24" stroke-width="14">
      <path d="M0 0 L0 -200 A200 200 0 0 1 173 -100 Z" fill="#E8643C"/>
      <path d="M0 0 L173 -100 A200 200 0 0 1 173 100 Z" fill="#7A9A52"/>
      <path d="M0 0 L173 100 A200 200 0 0 1 0 200 Z" fill="#F2A03D"/>
      <path d="M0 0 L0 200 A200 200 0 0 1 -173 100 Z" fill="#6F94A8"/>
      <path d="M0 0 L-173 100 A200 200 0 0 1 -173 -100 Z" fill="#D1688A"/>
      <path d="M0 0 L-173 -100 A200 200 0 0 1 0 -200 Z" fill="#C98A3A"/>
    </g>
    <circle r="52" fill="none" stroke="#3A2A24" stroke-width="3.5"/>
    <circle r="17" fill="#FBF3E4" stroke="#3A2A24" stroke-width="3"/>
  </g>
  <text class="word" x="118" y="62" font-size="42" letter-spacing="-0.01em">Spinout</text>
  <text class="tagline" x="118" y="84">round up · spin · go</text>
</svg>
